# xmcd CD database file
#
# Track frame offsets:
#	150
#	11594
#	26441
#	37168
#	58378
#	76030
#	97750
#	107994
#	116281
#	132453
#	146890
#	159232
#	172162
#	187551
#	201911
#	214738
#	238992
#	254254
#	273728
#	287367
#	303082
#	317394
#
# Disc length: 4398 seconds
#
# Revision: 0
# Processed by: cddbd v1.5.2PL0 Copyright (c) Steve Scherf et al.
# Submitted via: CDex 1.70beta2
#
DISCID=32112c16
DTITLE=Louis Armstrong - The Essential
DYEAR=1900
DGENRE=Jazz
TTITLE0=Hello Dolly
TTITLE1=Blueberry Hill
TTITLE2=Mame
TTITLE3=Jeepers Creepers
TTITLE4=Cabaret
TTITLE5=Tea For Two
TTITLE6=Way Down Yonder In New Orleans
TTITLE7=Stompin' At The Savoy
TTITLE8=I Got The Rhythm
TTITLE9=When The Saints Go Marching In
TTITLE10=Basin Street Blues
TTITLE11=Saint Louis Blues
TTITLE12=Mack The Knife
TTITLE13=That Rhythm Man
TTITLE14=I Can't Give You Anything But Love
TTITLE15=On The Sunny Side Of The Street
TTITLE16=Bye and Bye
TTITLE17=The Hucklebuck
TTITLE18=Ain't Misbehavin'
TTITLE19=The Peanut Vendor
TTITLE20=Just A Gigolo
TTITLE21=C'est Si Bon
EXTD=
EXTT0=
EXTT1=
EXTT2=
EXTT3=
EXTT4=
EXTT5=
EXTT6=
EXTT7=
EXTT8=
EXTT9=
EXTT10=
EXTT11=
EXTT12=
EXTT13=
EXTT14=
EXTT15=
EXTT16=
EXTT17=
EXTT18=
EXTT19=
EXTT20=
EXTT21=
PLAYORDER=
